<?xml version="1.0" standalone="no"?>
<!DOCTYPE svg PUBLIC "-//W3C//DTD SVG 20010904//EN"
 "http://www.w3.org/TR/2001/REC-SVG-20010904/DTD/svg10.dtd">
<svg version="1.0" xmlns="http://www.w3.org/2000/svg"
 width="125.000000pt" height="124.000000pt" viewBox="0 0 125.000000 124.000000"
 preserveAspectRatio="xMidYMid meet">

<g transform="translate(0.000000,124.000000) scale(0.100000,-0.100000)"
fill="#000000" stroke="none">
<path d="M721 959 c-31 -40 -42 -99 -42 -242 0 -164 24 -279 65 -318 38 -35
40 -31 50 94 l7 89 -30 -7 -31 -7 0 96 c0 53 3 96 6 96 3 0 15 -5 26 -11 20
-11 21 -10 14 62 -8 91 -25 179 -34 178 -4 0 -18 -14 -31 -30z"/>
<path d="M865 790 c-4 -6 9 -29 29 -50 44 -49 47 -89 10 -143 -21 -31 -23 -41
-13 -53 10 -13 14 -12 31 3 11 10 26 30 34 45 16 30 19 123 5 113 -11 -6 -77
72 -73 86 3 13 -15 11 -23 -1z"/>
<path d="M190 771 c-72 -15 -110 -56 -110 -122 0 -33 55 -99 83 -99 8 0 18
-11 21 -25 4 -15 16 -27 32 -31 32 -8 113 2 130 17 24 20 16 39 -16 39 l-30 0
0 63 c0 34 -3 86 -6 115 -7 51 -8 52 -38 51 -17 -1 -47 -4 -66 -8z"/>
<path d="M991 567 c-25 -50 -31 -71 -23 -79 15 -15 38 4 61 51 22 44 38 94 22
71 -8 -12 -11 -12 -18 5 -7 17 -13 9 -42 -48z"/>
<path d="M1063 507 c-39 -58 -42 -80 -12 -75 14 2 33 22 52 57 17 30 26 51 20
48 -7 -4 -15 -1 -20 6 -6 10 -17 0 -40 -36z"/>
<path d="M345 450 c4 -19 12 -39 17 -45 7 -7 9 1 4 25 -3 19 -11 39 -17 45 -8
7 -9 0 -4 -25z"/>
</g>
</svg>
